# xmcd
#
# Track frame offsets:
#	150
#	15594
#	35102
#	51678
#	68908
#	82681
#	99518
#	117129
#	131760
#	151912
#	166978
#	181446
#	198071
#
# Disc length: 2849 seconds
#
# Revision: 0
# Processed by: cddbd v1.5.2PL0 Copyright (c) Steve Scherf et al.
# Submitted via: EasyCDDAExtractor 16.0.6.1
#
DISCID=a70b1f0d
DTITLE=Γλυκερία - Κάνε κουράγιο, Ελλάδα μου 2
DYEAR=2014
DGENRE=Ελαφρά
TTITLE0=Γλυκερία - Αδύνατον να κοιμηθώ[Μ.Σουγιούλ/Τ.Μωράκης-Χ.Γιαννακόπουλος]
TTITLE1=Γλυκερία-Τσέρτος Μπάμπης - Αν ήμουνα Θεός [Μ. Σουγιούλ-Κ. Κοφινιώτης]
TTITLE2=Τσέρτος Μπάμπης - Θα καθόμουνα πλάϊ σου[Σουγιούλ-Τραϊφόρος/Σακελλάριος
TTITLE2=/Γιανν)λος]
TTITLE3=Τσέρτος Μπάμπης-Γλυκερία - Κοριτσάρα μου [Μ. Σουγιούλ-Ν. Φατσέας]
TTITLE4=Γλυκερία-Τσέρτος Μπάμπης - Ο μήνας έχει εννιά [Μ. Σουγιούλ-Γ. Τζαβέλλα
TTITLE4=ς]
TTITLE5=Γλυκερία - Χαράμι [Μ. Σουγιούλ-Μ. Τραϊφόρος]
TTITLE6=Γλυκερία-Τσέρτος Μπάμπης - Το τραμ το τελευταίο[Σουγιούλ/Γιαννίδης-Σακ
TTITLE6=κελάριος/Γιανν)λος]
TTITLE7=Γλυκερία - Άσε τον παλιόκοσμο [Μ. Σουγιούλ-Αλ. Σακελλάριος]
TTITLE8=Γλυκερία - Μονά, ζυγά [Μ. Σουγιούλ-Δημ. Γιαννουκάκης]
TTITLE9=Γλυκερία-Τσέρτος Μπάμπης - Θα γυρίσει ο τροχός [Μ. Σουγιούλ-Α. Σακελλά
TTITLE9=ριος/Γιαννακόπουλος]
TTITLE10=Γλυκερία-Τσέρτος Μπάμπης - Τ' αλητάκια[Σουγιούλ-Σακελλάριος/Γιανν)λος
TTITLE10=/Κυπαρίσσης]
TTITLE11=Γλυκερία-Τσέρτος Μπάμπης - Τραμπαρίφας [Μ. Σουγιούλ-Α. Σακελλάριος/Χ.
TTITLE11=Γιαννακόπουλος]
TTITLE12=Γλυκερία-Τσέρτος Μπάμπης - Κάνε κουράγιο, Ελλάδα μου [Μ. Σουγιούλ-Μ. 
TTITLE12=Τραϊφόρος]
EXTD=
EXTT0=
EXTT1=
EXTT2=
EXTT3=
EXTT4=
EXTT5=
EXTT6=
EXTT7=
EXTT8=
EXTT9=
EXTT10=
EXTT11=
EXTT12=
PLAYORDER=
